<svg xmlns="http://www.w3.org/2000/svg" width="88" height="31" viewBox="0 0 88 31">
    <g fill="none" fill-rule="evenodd">
        <path fill="#7D7D7D" d="M3.57 22.92H.093V.04H3.57v13.444l6.702-6.97h4.468l-6.267 6.507 6.732 9.899h-4.22l-4.901-7.185-2.514 2.529zM25.288 4.503a2.099 2.099 0 0 1-.652-1.542c0-.596.218-1.11.652-1.541a2.124 2.124 0 0 1 1.551-.648c.6 0 1.117.216 1.552.648.434.431.651.945.651 1.541 0 .597-.217 1.11-.651 1.542a2.126 2.126 0 0 1-1.552.648c-.6 0-1.117-.216-1.551-.648M51.195 22.92H47.72V.04h3.475v13.444l6.702-6.97h4.468l-6.268 6.507 6.733 9.899h-4.22l-4.902-7.185-2.513 2.529zM72.138 21.748c-.827.946-1.986 1.419-3.475 1.419-1.49 0-2.684-.442-3.584-1.326-.9-.884-1.35-2.19-1.35-3.917V1.365h3.476v16.158c0 1.645.62 2.467 1.861 2.467.724 0 1.242-.256 1.552-.77l1.52 2.528z"/>
        <path fill="#7D7D7D" d="M79.553 26.312c3.061 0 4.592-1.933 4.592-5.797v-1.018c-1.386 1.419-3.154 2.128-5.305 2.128-4.282 0-6.423-2.333-6.423-7v-8.08h3.475v6.538c0 1.912.295 3.264.884 4.055.59.792 1.603 1.187 3.041 1.187s2.487-.365 3.15-1.095c.661-.729 1.054-1.834 1.178-3.314V6.515h3.476v14.092c0 2.857-.75 5.047-2.25 6.568s-3.44 2.282-5.818 2.282c-1.82 0-3.418-.432-4.793-1.295-1.376-.864-2.374-2.097-2.995-3.7l3.134-1.326c.807 2.117 2.358 3.176 4.654 3.176M43.935 17.924c-1.068 1.094-2.19 1.753-3.365 1.991v3.13c2.003-.323 3.807-1.288 5.413-2.9l-2.048-2.22zM32.701 10.49v.816h2.6c.124-.137.254-.27.396-.397 1.065-.956 2.322-1.434 3.77-1.434s2.886.617 4.313 1.85l2.047-2.497c-1.717-1.706-3.816-2.56-6.298-2.56s-4.587.787-6.314 2.36a7.874 7.874 0 0 0-1.517 1.863H32.7zM21.737 22.203h-1.23v-.927h-.915v-3.362h.001a5.653 5.653 0 0 1-.014-.39V1.364h-3.475v16.56c0 1.726.45 3.032 1.35 3.916.9.884 2.094 1.326 3.583 1.326.244 0 .475-.018.7-.043v-.921z"/>
        <path fill="#7D2B80" d="M25.869 8.345h2.135V7.284H25.87z"/>
        <path fill="#EF6C19" d="M29.186 18.009v-4.32h2.174v4.169h1.105v-3.07h2.06v4.092h1.03v-3.07h1.182v1.024h1.03v-1.062h-1.03V14.75h-2.212v-1.137H31.36v-1.06h-2.098V8.345h-1.258v9.664z"/>
        <path fill="#45B3C2" d="M36.66 27.483h-1.03v2.046h-8.808v-2.046h-1.068v3.146h10.944v-3.146h1.03v-3.297H36.66z"/>
        <path fill="#E3B03D" d="M37.767 24.186h1.22v-7.314h-1.22z"/>
        <path fill="#CD142E" d="M24.648 25.285v-2.16H23.62v-2.16h-1.068v-1.1H21.6v-2.121h1.944l-.038 1.061h1.105v3.6h1.22V8.345h-1.182v9.399h-.99v-1.137h-3.319v3.335h1.145v1.136h1.067v2.124h1.068v2.122h1.03v2.159h1.105v-2.198z"/>
    </g>
</svg>
